<?xml version="1.0" encoding="UTF-8"?>
<svg id="Layer_1" data-name="Layer 1" xmlns="http://www.w3.org/2000/svg" viewBox="0 0 687.59 182.77">
  <defs>
    <style>
      .cls-1 {
        fill: #3f3bde;
      }
    </style>
  </defs>
  <g>
    <rect class="cls-1" x="411.18" y="28.16" width="28.03" height="28.03"/>
    <polygon class="cls-1" points="440.08 73.22 409.89 73.22 409.89 150 394.37 150 394.37 0 364.18 0 364.18 111.06 364.17 111.06 364.17 180.19 440.06 180.19 440.06 180.17 440.08 180.17 440.08 73.22"/>
  </g>
  <path class="cls-1" d="M73.53,182.77c-15.24,0-28.35-3.27-39.35-9.81-11-6.54-19.44-15.67-25.33-27.38C2.95,133.86,0,120.32,0,104.94s2.95-28.96,8.84-40.75c5.89-11.78,14.34-20.99,25.33-27.6,11-6.61,24.11-9.92,39.35-9.92,18.4,0,33.49,4.6,45.28,13.8,11.78,9.2,19.05,22.14,21.78,38.81h-33.2c-1.72-8.05-5.5-14.27-11.32-18.65-5.82-4.38-13.48-6.57-22.97-6.57-8.91,0-16.53,2.05-22.86,6.14-6.33,4.1-11.18,9.95-14.55,17.57-3.38,7.62-5.07,16.68-5.07,27.17s1.69,19.51,5.07,27.06c3.38,7.54,8.23,13.37,14.55,17.46,6.32,4.1,13.94,6.15,22.86,6.15,9.49,0,17.11-2.05,22.86-6.15,5.75-4.1,9.48-9.95,11.21-17.57h33.2c-2.73,15.96-9.95,28.43-21.67,37.41-11.72,8.98-26.77,13.48-45.17,13.48Z"/>
  <path class="cls-1" d="M153.73,180.19v-106.95h30.19v106.95h-30.19ZM155.03,56.21v-28.03h28.03v28.03h-28.03Z"/>
  <path class="cls-1" d="M232.86,180.19l-39.03-106.95h31.7l25.87,78.49,25.66-78.49h31.48l-39.03,106.95h-36.66Z"/>
  <path class="cls-1" d="M318.46,180.19v-106.95h30.19v106.95h-30.19ZM319.75,56.21v-28.03h28.03v28.03h-28.03Z"/>
  <path class="cls-1" d="M455.59,180.19v-106.95h30.19v15.74c3.45-5.6,8.15-10.06,14.12-13.37,5.97-3.31,12.97-4.96,21.02-4.96,13.51,0,23.86,4.28,31.05,12.83,7.18,8.56,10.78,20.88,10.78,36.98v59.73h-30.19v-56.92c0-8.77-1.76-15.49-5.29-20.16-3.52-4.67-9.09-7.01-16.71-7.01-7.19,0-13.12,2.55-17.79,7.66-4.67,5.1-7.01,12.18-7.01,21.24v55.2h-30.19Z"/>
  <path class="cls-1" d="M570.29,180.19l39.46-53.47-39.46-53.47h32.56l26.31,36.22,26.09-36.22h32.34l-39.46,53.47,39.46,53.47h-32.34l-26.09-36.22-26.31,36.22h-32.56Z"/>
</svg>